# xmcd
#
# Track frame offsets: 
#        150
#        28662
#        51272
#        68637
#        89745
#        116800
#        142327
#        162810
#        186572
#
# Disc length: 2694 seconds
#
# Revision: 4
# Processed by: cddbd v1.5.2PL0 Copyright (c) Steve Scherf et al.
# Submitted via: ExactAudioCopy v0.99pb5
#
DISCID=8a0a8409
DTITLE=Atomic Rooster - In Hearing Of (RR 4068-WZ)
DYEAR=1971
DGENRE=Progressive Rock
TTITLE0=Breakthrough
TTITLE1=Break The Ice
TTITLE2=Decision - Indecision
TTITLE3=A Spoonful Of Bromide Helps The Pulse Rate Go Down
TTITLE4=Black Snake
TTITLE5=Head In The Sky
TTITLE6=The Rock
TTITLE7=The Price
TTITLE8=Devil's Answer (Bonus)
EXTD=YEAR: 1971 ID3G: 17
EXTT0=
EXTT1=
EXTT2=
EXTT3=
EXTT4=
EXTT5=
EXTT6=
EXTT7=
EXTT8=
PLAYORDER=
